<?xml version="1.0" encoding="UTF-8"?>
<svg version="1.1" xmlns="http://www.w3.org/2000/svg" width="334" height="143">
<path d="M0 0 C1.50875233 -0.00337695 3.01750199 -0.00823683 4.52624512 -0.01449585 C7.67319898 -0.02182607 10.81943846 -0.0112882 13.96630859 0.01220703 C17.97432078 0.04069398 21.98065838 0.02426896 25.98860931 -0.00565529 C29.09963304 -0.02383399 32.21026806 -0.01792245 35.32130432 -0.00501633 C36.79789942 -0.00171136 38.27453131 -0.00566548 39.75108337 -0.01741409 C50.04733794 -0.08138599 57.49460162 1.36341144 65.8671875 7.5859375 C66.75277344 8.49085937 66.75277344 8.49085937 67.65625 9.4140625 C68.26210938 10.00703125 68.86796875 10.6 69.4921875 11.2109375 C76.26986661 20.50434903 75.8868804 30.07231691 75.84765625 41.12890625 C75.85289946 42.93055033 75.85917848 44.73219166 75.86643982 46.53382874 C75.8768128 50.29864475 75.87232755 54.06308206 75.85766602 57.82788086 C75.84048484 62.63057783 75.86398126 67.43207759 75.89915562 72.23464108 C75.92121294 75.95211069 75.91966804 79.6692975 75.9113903 83.38681221 C75.9105753 85.1564827 75.9173516 86.92617491 75.93216133 88.69578362 C76.01154915 99.89738166 75.47903692 108.17173243 68.2109375 117.25 C67.19386719 118.13558594 67.19386719 118.13558594 66.15625 119.0390625 C65.49367188 119.64492187 64.83109375 120.25078125 64.1484375 120.875 C55.12536237 126.50520219 46.24605512 127.26096521 35.8125 127.1953125 C34.4420952 127.19801624 33.07169228 127.20190593 31.70129395 127.20690918 C28.8470612 127.21276303 25.99333356 127.20437652 23.13916016 127.18554688 C19.51146468 127.16275869 15.88495354 127.17590427 12.25730133 127.19983673 C9.43279366 127.21440766 6.60855902 127.20963773 3.78404236 127.19932556 C1.80625626 127.19542349 -0.1715412 127.20740372 -2.14929199 127.21984863 C-12.63863374 127.11188178 -22.12355889 125.316483 -29.9296875 117.84765625 C-35.23015681 111.37830615 -38.39783276 104.00791076 -38.71875 95.6640625 C-39.64107422 95.71626953 -39.64107422 95.71626953 -40.58203125 95.76953125 C-41.39027344 95.79660156 -42.19851562 95.82367188 -43.03125 95.8515625 C-44.23201172 95.90376953 -44.23201172 95.90376953 -45.45703125 95.95703125 C-47.71875 95.6640625 -47.71875 95.6640625 -49.33032227 94.5222168 C-51.29874547 91.8878456 -51.13558263 89.90634369 -51.1953125 86.640625 C-51.22625 85.4546875 -51.2571875 84.26875 -51.2890625 83.046875 C-51.30710938 81.80679688 -51.32515625 80.56671875 -51.34375 79.2890625 C-51.39490876 76.84367363 -51.4494665 74.39835294 -51.5078125 71.953125 C-51.52537598 70.86725098 -51.54293945 69.78137695 -51.56103516 68.66259766 C-51.70670386 65.89308832 -52.09545641 63.36166716 -52.71875 60.6640625 C-56.44275871 59.42272626 -59.85051 59.12294764 -63.71875 59.6640625 C-67.47087276 61.67909139 -69.35519095 63.11872392 -71.71875 66.6640625 C-72.06998555 69.21157343 -72.06998555 69.21157343 -72.09765625 72.06640625 C-72.13181641 73.12150391 -72.16597656 74.17660156 -72.20117188 75.26367188 C-72.22759766 76.36517578 -72.25402344 77.46667969 -72.28125 78.6015625 C-72.34130093 80.77745051 -72.40495714 82.95324277 -72.47265625 85.12890625 C-72.49658447 86.0943335 -72.5205127 87.05976074 -72.54516602 88.05444336 C-72.7025187 90.42004507 -72.92592094 92.43163113 -73.71875 94.6640625 C-76.82795609 96.21866555 -80.34958028 96.39126943 -83.71875 95.6640625 C-86.40168422 93.20313308 -86.9363551 91.10359831 -87.12280273 87.6015625 C-87.14930508 85.9559131 -87.15808368 84.30991528 -87.15234375 82.6640625 C-87.1575856 81.79136719 -87.16282745 80.91867188 -87.16822815 80.01953125 C-87.17464266 78.17709414 -87.17331873 76.33461605 -87.16479492 74.4921875 C-87.15627923 71.6737381 -87.18506205 68.85731201 -87.21679688 66.0390625 C-87.21840888 64.24739644 -87.21783137 62.45572679 -87.21484375 60.6640625 C-87.22607773 59.82230469 -87.23731171 58.98054688 -87.24888611 58.11328125 C-87.17942893 52.28171176 -87.17942893 52.28171176 -84.81713867 49.11450195 C-82.71875 47.6640625 -82.71875 47.6640625 -80.6484375 47.45703125 C-74.94097222 48.55295139 -74.94097222 48.55295139 -72.71875 49.6640625 C-71.790625 49.1896875 -70.8625 48.7153125 -69.90625 48.2265625 C-63.88354189 45.50500402 -56.52869466 45.54631848 -50.2421875 47.390625 C-44.74275987 49.92406919 -42.02917169 53.69842997 -38.71875 58.6640625 C-38.70416748 57.64570312 -38.68958496 56.62734375 -38.67456055 55.578125 C-38.61620571 51.76837578 -38.53897822 47.95919484 -38.45629883 44.14990234 C-38.42322322 42.50709313 -38.39513823 40.86417503 -38.37231445 39.22119141 C-38.33844595 36.8475135 -38.28611925 34.47481809 -38.23046875 32.1015625 C-38.22407883 31.37727051 -38.2176889 30.65297852 -38.21110535 29.90673828 C-37.99791519 22.36617379 -35.77484127 16.17111141 -30.65625 10.4765625 C-29.96402344 9.67863281 -29.27179688 8.88070313 -28.55859375 8.05859375 C-19.7587563 0.63864828 -11.10602078 -0.08836825 0 0 Z " fill="#FDFCFC" transform="translate(203.71875,8.3359375)"/>
<path d="M0 0 C0.33 0 0.66 0 1 0 C1.33 9.9 1.66 19.8 2 30 C2.33 27.36 2.66 24.72 3 22 C3.33 22 3.66 22 4 22 C4.02578125 22.66386719 4.0515625 23.32773437 4.078125 24.01171875 C4.3443653 28.15659612 4.59327126 31.26475959 6.625 34.9375 C14.05519032 41.3900337 24.44260605 41.78211568 33.875 42.4375 C38.43939824 42.80027732 42.62354187 43.62354187 46 47 C46.375 49.8125 46.375 49.8125 46 53 C42.07868027 57.03024528 39.00728838 57.88219075 33.5390625 58.203125 C31.60160156 58.22632812 31.60160156 58.22632812 29.625 58.25 C28.33851563 58.27578125 27.05203125 58.3015625 25.7265625 58.328125 C21.72645677 57.97591443 19.37591247 57.13791217 16 55 C15.319375 53.96875 14.63875 52.9375 13.9375 51.875 C12.2820768 48.8298835 12.2820768 48.8298835 9.4375 48 C6.73709522 47.77465305 6.73709522 47.77465305 4 50 C3.74984127 53.58357241 3.74984127 53.58357241 4 57 C3.01 56.67 2.02 56.34 1 56 C0.97285566 58.7084017 0.95309154 61.41652721 0.9375 64.125 C0.92493164 65.26582031 0.92493164 65.26582031 0.91210938 66.4296875 C0.89353491 70.7389644 1.13882735 74.75516474 2 79 C1.34 79 0.68 79 0 79 C-0.66 75.37 -1.32 71.74 -2 68 C-4.24609375 68.09765625 -6.4921875 68.1953125 -8.73828125 68.29296875 C-11 68 -11 68 -12.61157227 66.8581543 C-14.57999547 64.2237831 -14.41683263 62.24228119 -14.4765625 58.9765625 C-14.5075 57.790625 -14.5384375 56.6046875 -14.5703125 55.3828125 C-14.58835938 54.14273438 -14.60640625 52.90265625 -14.625 51.625 C-14.67615876 49.17961113 -14.7307165 46.73429044 -14.7890625 44.2890625 C-14.80662598 43.20318848 -14.82418945 42.11731445 -14.84228516 40.99853516 C-14.98795386 38.22902582 -15.37670641 35.69760466 -16 33 C-19.72400871 31.75866376 -23.13176 31.45888514 -27 32 C-30.75212276 34.01502889 -32.63644095 35.45466142 -35 39 C-35.35123555 41.54751093 -35.35123555 41.54751093 -35.37890625 44.40234375 C-35.41306641 45.45744141 -35.44722656 46.51253906 -35.48242188 47.59960938 C-35.50884766 48.70111328 -35.53527344 49.80261719 -35.5625 50.9375 C-35.62255093 53.11338801 -35.68620714 55.28918027 -35.75390625 57.46484375 C-35.77783447 58.430271 -35.8017627 59.39569824 -35.82641602 60.39038086 C-35.9837687 62.75598257 -36.20717094 64.76756863 -37 67 C-40.10920609 68.55460305 -43.63083028 68.72720693 -47 68 C-49.68293422 65.53907058 -50.2176051 63.43953581 -50.40405273 59.9375 C-50.43055508 58.2918506 -50.43933368 56.64585278 -50.43359375 55 C-50.4388356 54.12730469 -50.44407745 53.25460938 -50.44947815 52.35546875 C-50.45589266 50.51303164 -50.45456873 48.67055355 -50.44604492 46.828125 C-50.43752923 44.0096756 -50.46631205 41.19324951 -50.49804688 38.375 C-50.49965888 36.58333394 -50.49908137 34.79166429 -50.49609375 33 C-50.50732773 32.15824219 -50.51856171 31.31648438 -50.53013611 30.44921875 C-50.46067893 24.61764926 -50.46067893 24.61764926 -48.09838867 21.45043945 C-46 20 -46 20 -43.9296875 19.79296875 C-38.22222222 20.88888889 -38.22222222 20.88888889 -36 22 C-35.071875 21.525625 -34.14375 21.05125 -33.1875 20.5625 C-27.16479189 17.84094152 -19.80994466 17.88225598 -13.5234375 19.7265625 C-8.02400987 22.26000669 -5.31042169 26.03436747 -2 31 C-1.96241577 29.64467163 -1.96241577 29.64467163 -1.92407227 28.26196289 C-1.82912683 24.9203572 -1.72988379 21.57893748 -1.62768555 18.23754883 C-1.5842837 16.7893576 -1.54261256 15.34111346 -1.50268555 13.89282227 C-1.44510938 11.81510441 -1.38137972 9.73765427 -1.31640625 7.66015625 C-1.27974854 6.40855713 -1.24309082 5.15695801 -1.20532227 3.86743164 C-1 1 -1 1 0 0 Z " fill="#FCF9F9" transform="translate(167,36)"/>
<path d="M0 0 C3.6326919 2.92387396 5.37113189 4.46776577 5.9375 9.1875 C5.751875 10.610625 5.751875 10.610625 5.5625 12.0625 C2.5625 14.0625 2.5625 14.0625 -0.375 14 C-4.19113777 12.83179456 -5.02547145 11.15291157 -7.4375 8.0625 C-13.886105 5.35705077 -21.81122055 4.67799301 -28.578125 6.703125 C-30.40472221 7.60755663 -31.99019485 8.61519485 -33.4375 10.0625 C-33.47830783 12.06208364 -33.48004356 14.06295254 -33.4375 16.0625 C-28.82192919 18.59007449 -25.07824042 19.28628371 -19.8125 19.5625 C-0.28434529 20.64508427 -0.28434529 20.64508427 6.5625 28.0625 C8.80266923 32.54283845 8.15286913 38.2122124 7.5625 43.0625 C5.03317302 48.68108131 0.21688113 51.11424095 -5.2890625 53.3359375 C-15.09552814 56.65230588 -26.64104857 56.32051993 -36.16015625 52.26953125 C-40.61942705 49.90604124 -44.86276114 47.10166436 -46.4375 42.0625 C-46.8125 39.5 -46.8125 39.5 -46.4375 37.0625 C-44.75 35.1875 -44.75 35.1875 -42.4375 34.0625 C-40 33.9375 -40 33.9375 -37.4375 35.0625 C-36.0768405 36.76226467 -34.94236871 38.49167103 -33.84375 40.37109375 C-31.9084885 42.69878328 -30.3470119 43.23584202 -27.4375 44.0625 C-19.76725151 44.71727731 -12.21482375 45.09662128 -5.4375 41.0625 C-4.08131501 39.93715895 -4.08131501 39.93715895 -4.375 37 C-4.395625 36.030625 -4.41625 35.06125 -4.4375 34.0625 C-9.42558696 31.13954459 -13.56461251 30.49335228 -19.1875 30.0625 C-28.91237871 29.13149918 -37.26826162 28.23173838 -44.4375 21.0625 C-46.57629049 16.78491902 -46.1373836 11.68404541 -45.4375 7.0625 C-42.28823986 1.1658141 -37.68134708 -1.97184444 -31.4375 -3.9375 C-20.58290272 -6.50976591 -9.72050154 -5.47882814 0 0 Z " fill="#D4495F" transform="translate(216.4375,48.9375)"/>
<path d="M0 0 C5.94801317 3.38087394 9.4260572 8.65317161 11.5625 15.0625 C11.68154875 17.08079161 11.73771712 19.10323771 11.75 21.125 C11.76417969 22.18847656 11.77835938 23.25195312 11.79296875 24.34765625 C11.5625 27.0625 11.5625 27.0625 9.5625 29.0625 C7.05329154 29.23745606 4.65625059 29.29419569 2.1484375 29.2578125 C1.41879791 29.2549826 0.68915833 29.25215271 -0.06259155 29.24923706 C-2.39606028 29.23803002 -4.72914703 29.2129251 -7.0625 29.1875 C-8.64322363 29.17747085 -10.22395327 29.16834489 -11.8046875 29.16015625 C-15.68243914 29.13808905 -19.55990478 29.10355615 -23.4375 29.0625 C-19.83094992 33.85802125 -19.83094992 33.85802125 -14.4375 36.0625 C-9.17021828 36.05179414 -5.92457976 34.77836406 -1.4375 32.0625 C1.75264822 31.67968221 3.6571655 31.5192993 6.4375 33.1875 C8.22378008 36.16463347 8.29864093 37.64948294 7.5625 41.0625 C1.96577348 46.65922652 -3.2725814 48.30352466 -11.0625 48.375 C-18.7547645 48.375 -24.61609428 47.5961937 -30.4609375 42.19140625 C-35.7975449 36.43004847 -38.28447944 31.01956889 -38.4375 23.0625 C-37.89131979 15.53735045 -35.34859473 9.78041744 -30.4375 4.0625 C-21.89025908 -2.88213325 -10.13674928 -4.44728788 0 0 Z M-21.4375 13.0625 C-22.78439915 15.63349402 -22.78439915 15.63349402 -23.4375 18.0625 C-18.9996439 19.17415232 -14.66793614 19.17777763 -10.125 19.125 C-9.38443359 19.12048828 -8.64386719 19.11597656 -7.88085938 19.11132812 C-6.06637101 19.09962175 -4.25192466 19.08168898 -2.4375 19.0625 C-2.1075 18.0725 -1.7775 17.0825 -1.4375 16.0625 C-3.04416349 13.23698835 -3.84974209 11.85532574 -6.4375 10.0625 C-11.82658538 8.95116652 -17.23271952 9.25191769 -21.4375 13.0625 Z " fill="#FBF8F9" transform="translate(99.4375,56.9375)"/>
<path d="M0 0 C4.25516419 3.7965876 7.63091919 8.76927896 8.28515625 14.49609375 C8.50948706 21.21626442 8.50948706 21.21626442 6.94458008 23.62353516 C3.98687538 25.71713705 0.97488711 25.36939834 -2.51171875 25.29296875 C-3.23994339 25.28872391 -3.96816803 25.28447906 -4.71846008 25.28010559 C-7.04185127 25.26332733 -9.3643715 25.22567855 -11.6875 25.1875 C-13.26365934 25.17245197 -14.83983229 25.15876377 -16.41601562 25.14648438 C-20.27767877 25.11342685 -24.13869178 25.06165194 -28 25 C-24.48934292 30.61153814 -24.48934292 30.61153814 -19 34 C-13.06532861 34.68102786 -9.96703273 33.69139541 -4.82421875 30.83203125 C-3 30 -3 30 -0.125 30.125 C2 31 2 31 4 33 C3.91007857 36.41701449 3.26972592 37.72234097 0.875 40.1875 C-5.93758705 44.48239183 -13.1087539 44.8024996 -21 44 C-28.23923637 42.23214939 -32.83231282 38.05025043 -37 32 C-40.06326527 26.0066549 -39.86672918 18.77411188 -38.3828125 12.3125 C-35.79874689 4.81184938 -31.22835067 0.21027421 -24.25 -3.4375 C-15.62236179 -4.93074507 -7.48929479 -4.98261091 0 0 Z " fill="#D4495F" transform="translate(266,60)"/>
<path d="M0 0 C5.2638382 3.14275572 8.63341887 7.52001968 10.5 13.375 C10.75878906 16.84838867 10.75878906 16.84838867 10.765625 20.79296875 C10.76849518 21.84065178 10.76849518 21.84065178 10.77142334 22.90950012 C10.77277846 24.3777401 10.76912923 25.84599233 10.76074219 27.31420898 C10.74998393 29.56586339 10.76068455 31.8167288 10.7734375 34.06835938 C10.77211673 35.4973976 10.76955606 36.92643533 10.765625 38.35546875 C10.76336914 39.65379639 10.76111328 40.95212402 10.75878906 42.28979492 C10.5 45.375 10.5 45.375 8.5 47.375 C1.2969316 47.9466721 1.2969316 47.9466721 -1.09790039 46.22875977 C-3.09220962 43.59202113 -2.88478379 41.63247788 -2.90625 38.3515625 C-2.92816406 37.165625 -2.95007813 35.9796875 -2.97265625 34.7578125 C-2.98167969 33.51773438 -2.99070312 32.27765625 -3 31 C-3.01790599 28.55455338 -3.04866687 26.10915908 -3.09375 23.6640625 C-3.10083984 22.57818848 -3.10792969 21.49231445 -3.11523438 20.37353516 C-3.54902808 16.99291699 -4.48888437 15.10252953 -6.5 12.375 C-9.60953379 10.8202331 -12.06266761 11.08855563 -15.5 11.375 C-19.51115759 13.49410212 -21.86166746 15.14607757 -23.5 19.375 C-23.83193593 22.01542648 -23.83193593 22.01542648 -23.84375 24.875 C-23.87339844 25.926875 -23.90304687 26.97875 -23.93359375 28.0625 C-23.95550781 29.155625 -23.97742188 30.24875 -24 31.375 C-24.04343935 33.5418572 -24.09518635 35.70856783 -24.15625 37.875 C-24.17494141 38.8340625 -24.19363281 39.793125 -24.21289062 40.78125 C-24.50594648 43.42872059 -25.1551075 45.09861508 -26.5 47.375 C-27.93655854 47.45631463 -29.3744483 47.51433559 -30.8125 47.5625 C-32.01326172 47.61470703 -32.01326172 47.61470703 -33.23828125 47.66796875 C-36.07099464 47.30103696 -36.74171572 46.5799851 -38.5 44.375 C-38.88095093 42.4846344 -38.88095093 42.4846344 -38.88818359 40.33422852 C-38.89764008 39.52651505 -38.90709656 38.71880157 -38.9168396 37.88661194 C-38.91076691 37.01781906 -38.90469421 36.14902618 -38.8984375 35.25390625 C-38.90130768 34.35759995 -38.90417786 33.46129364 -38.90713501 32.53782654 C-38.90917635 30.64231739 -38.90364159 28.74678721 -38.89111328 26.85131836 C-38.87507925 23.95183063 -38.89094974 21.05374082 -38.91015625 18.15429688 C-38.90817346 16.31249692 -38.90432905 14.47069784 -38.8984375 12.62890625 C-38.90451019 11.7621376 -38.91058289 10.89536896 -38.9168396 10.00233459 C-38.87544043 6.45247735 -38.8266997 4.01214357 -37.18994141 0.82006836 C-35.5 -0.625 -35.5 -0.625 -32.0625 -1 C-28.5 -0.625 -28.5 -0.625 -26.5 0.5625 C-25.84 0.830625 -25.18 1.09875 -24.5 1.375 C-22.91375059 0.63250028 -21.32857911 -0.11242319 -19.75 -0.87109375 C-13.57239616 -2.94102004 -5.94143926 -2.69450471 0 0 Z " fill="#FCF9FA" transform="translate(319.5,56.625)"/>
<path d="M0 0 C1.51188148 -0.0238678 1.51188148 -0.0238678 3.05430603 -0.04821777 C4.68560204 -0.0485199 4.68560204 -0.0485199 6.34985352 -0.04882812 C7.46812027 -0.05644165 8.58638702 -0.06405518 9.73854065 -0.07189941 C12.10480515 -0.08271073 14.47111741 -0.08554936 16.83740234 -0.08105469 C20.46150165 -0.08008275 24.08348215 -0.12168788 27.70727539 -0.16601562 C30.00479701 -0.17122268 32.302326 -0.17391082 34.59985352 -0.17382812 C35.68535995 -0.19022339 36.77086639 -0.20661865 37.88926697 -0.22351074 C45.38195301 -0.15455175 45.38195301 -0.15455175 48.76025391 2.7890625 C50.04125977 5.41992188 50.04125977 5.41992188 49.97875977 8.10742188 C49.04125977 10.41992188 49.04125977 10.41992188 46.04125977 12.41992188 C44.04833984 12.73876953 44.04833984 12.73876953 41.81079102 12.83398438 C41.00834961 12.87265625 40.2059082 12.91132812 39.37915039 12.95117188 C38.54577148 12.98210938 37.71239258 13.01304688 36.85375977 13.04492188 C36.0087793 13.08359375 35.16379883 13.12226562 34.29321289 13.16210938 C32.20958453 13.25628467 30.12545224 13.33918863 28.04125977 13.41992188 C28.03317291 13.97924408 28.02508606 14.53856628 28.01675415 15.11483765 C27.93087627 20.92217233 27.83138087 26.72915902 27.72387695 32.53613281 C27.68552985 34.7050188 27.65068722 36.87396965 27.61938477 39.04296875 C27.57385838 42.1558352 27.51584403 45.26825293 27.45532227 48.38085938 C27.43799545 49.84185562 27.43799545 49.84185562 27.4203186 51.33236694 C27.40044891 52.23314972 27.38057922 53.1339325 27.36010742 54.06201172 C27.34678375 54.85699066 27.33346008 55.6519696 27.31973267 56.47103882 C27.04125977 58.41992188 27.04125977 58.41992188 25.04125977 60.41992188 C22.94750977 60.72070312 22.94750977 60.72070312 20.54125977 60.73242188 C19.74719727 60.74917969 18.95313477 60.7659375 18.13500977 60.78320312 C17.44407227 60.66332031 16.75313477 60.5434375 16.04125977 60.41992188 C13.97245335 57.31671225 13.78310398 56.57052709 13.72241211 53.0402832 C13.70254242 52.15959671 13.68267273 51.27891022 13.66220093 50.37153625 C13.65064972 49.42457382 13.63909851 48.47761139 13.62719727 47.50195312 C13.60783112 46.52957199 13.58846497 45.55719086 13.56851196 44.55534363 C13.50870427 41.44779243 13.46232587 38.34020422 13.41625977 35.23242188 C13.3780811 33.12628588 13.33902943 31.02016551 13.29907227 28.9140625 C13.20300166 23.74947583 13.11897485 18.58481606 13.04125977 13.41992188 C11.27008789 13.36384766 11.27008789 13.36384766 9.46313477 13.30664062 C7.90581189 13.24097038 6.34852163 13.1745234 4.79125977 13.10742188 C4.01395508 13.08486328 3.23665039 13.06230469 2.43579102 13.0390625 C-1.0113388 12.87701794 -3.40522345 12.71770532 -6.47827148 11.06445312 C-7.95874023 9.41992188 -7.95874023 9.41992188 -8.39624023 6.41992188 C-7.61716136 1.07766673 -5.12775583 0.0486559 0 0 Z " fill="#FCFCFC" transform="translate(14.958740234375,43.580078125)"/>
<path d="M0 0 C5.94186426 1.6976755 8.58282366 5.84980141 11.8125 10.75 C13.40710962 15.11419476 13.80723509 19.40192564 13 24 C11.94458008 25.62353516 11.94458008 25.62353516 10 27 C7.41225229 27.26153069 5.07100347 27.34958438 2.48828125 27.29296875 C1.76005661 27.28872391 1.03183197 27.28447906 0.28153992 27.28010559 C-2.04185127 27.26332733 -4.3643715 27.22567855 -6.6875 27.1875 C-8.26365934 27.17245197 -9.83983229 27.15876377 -11.41601562 27.14648438 C-15.27767877 27.11342685 -19.13869178 27.06165194 -23 27 C-23 26.67 -23 26.34 -23 26 C-14.09 26 -5.18 26 4 26 C4 25.34 4 24.68 4 24 C4.99 24 5.98 24 7 24 C7 23.34 7 22.68 7 22 C5.02 22 3.04 22 1 22 C1 21.34 1 20.68 1 20 C-6.92 20 -14.84 20 -23 20 C-21.8 12.8 -21.8 12.8 -18 9 C-14.18068464 7.08044772 -11.17974472 6.80342147 -6.9375 6.9375 C-3.40269719 7.04002265 -0.39172109 7.04923746 3 6 C3 4.68 3 3.36 3 2 C2.01 2 1.02 2 0 2 C0 1.34 0 0.68 0 0 Z " fill="#C95366" transform="translate(261,58)"/>
<path d="M0 0 C0.33 0 0.66 0 1 0 C1.33 9.9 1.66 19.8 2 30 C2.33 27.36 2.66 24.72 3 22 C3.33 22 3.66 22 4 22 C4.02578125 22.66386719 4.0515625 23.32773437 4.078125 24.01171875 C4.43063841 29.49971167 4.74381018 33.10862645 9 37 C11.11660427 38.31165257 11.11660427 38.31165257 13 39 C12.814375 39.598125 12.62875 40.19625 12.4375 40.8125 C11.77906313 43.16408762 11.77906313 43.16408762 13 46 C11.02 46 9.04 46 7 46 C7 46.66 7 47.32 7 48 C6.01 48.66 5.02 49.32 4 50 C3.74984127 53.58357241 3.74984127 53.58357241 4 57 C2.515 56.505 2.515 56.505 1 56 C0.97285566 58.7084017 0.95309154 61.41652721 0.9375 64.125 C0.92912109 64.88554688 0.92074219 65.64609375 0.91210938 66.4296875 C0.89353491 70.7389644 1.13882735 74.75516474 2 79 C1.34 79 0.68 79 0 79 C-0.66 75.37 -1.32 71.74 -2 68 C-4.24609375 68.09765625 -6.4921875 68.1953125 -8.73828125 68.29296875 C-11 68 -11 68 -12.8125 66.65625 C-14 65 -14 65 -13.6875 62.3125 C-13.460625 61.549375 -13.23375 60.78625 -13 60 C-12.67 60 -12.34 60 -12 60 C-12 61.98 -12 63.96 -12 66 C-9.36 65.67 -6.72 65.34 -4 65 C-3.67 53.78 -3.34 42.56 -3 31 C-2.67 31 -2.34 31 -2 31 C-1.97494385 30.09644775 -1.9498877 29.19289551 -1.92407227 28.26196289 C-1.82912683 24.9203572 -1.72988379 21.57893748 -1.62768555 18.23754883 C-1.5842837 16.7893576 -1.54261256 15.34111346 -1.50268555 13.89282227 C-1.44510938 11.81510441 -1.38137972 9.73765427 -1.31640625 7.66015625 C-1.27974854 6.40855713 -1.24309082 5.15695801 -1.20532227 3.86743164 C-1 1 -1 1 0 0 Z " fill="#FAF3F6" transform="translate(167,36)"/>
<path d="M0 0 C4.27924312 3.0206422 4.27924312 3.0206422 5.1875 6.25 C5.1875 7.57 5.1875 8.89 5.1875 10.25 C-3.3925 10.25 -11.9725 10.25 -20.8125 10.25 C-19.81804781 5.27773904 -19.21747708 3.74955977 -15.8125 0.25 C-10.63358633 -2.68938344 -5.24751696 -2.77103806 0 0 Z " fill="#FCF3F5" transform="translate(258.8125,66.75)"/>
<path d="M0 0 C0.495 1.485 0.495 1.485 1 3 C-6.00021713 5.66367709 -13.07133487 5.25334112 -20.46484375 5.1953125 C-21.8673126 5.19157708 -23.26978407 5.18873261 -24.67225647 5.18673706 C-28.34326527 5.17914221 -32.01411295 5.15952998 -35.68505859 5.1373291 C-39.43910544 5.11678072 -43.19317861 5.10771621 -46.94726562 5.09765625 C-54.29825011 5.07627965 -61.64910238 5.04219457 -69 5 C-68.67 4.01 -68.34 3.02 -68 2 C-66.76638229 1.9845388 -66.76638229 1.9845388 -65.50784302 1.96876526 C-57.76770086 1.87089832 -50.02764063 1.76839944 -42.28763008 1.66066074 C-38.3081555 1.60543201 -34.32867356 1.5520121 -30.34912109 1.50268555 C-26.51060359 1.45504123 -22.67217659 1.40269842 -18.83376694 1.34705925 C-17.36733114 1.32663599 -15.90087053 1.30792285 -14.43439102 1.29092598 C-12.38471735 1.26688124 -10.33521518 1.236827 -8.28564453 1.20532227 C-7.11760284 1.18977798 -5.94956116 1.1742337 -4.74612427 1.15821838 C-2.03798594 1.18358711 -2.03798594 1.18358711 0 0 Z " fill="#FDEAEE" transform="translate(260,130)"/>
<path d="M0 0 C0.99 0.33 1.98 0.66 3 1 C2.6875 3.375 2.6875 3.375 2 6 C-1.0211434 8.0140956 -1.80660017 8.26836596 -5.23046875 8.4140625 C-6.03291016 8.45273437 -6.83535156 8.49140625 -7.66210938 8.53125 C-8.49548828 8.5621875 -9.32886719 8.593125 -10.1875 8.625 C-11.03248047 8.66367187 -11.87746094 8.70234375 -12.74804688 8.7421875 C-14.83167524 8.83636279 -16.91580753 8.91926675 -19 9 C-19.00808685 9.5593222 -19.01617371 10.11864441 -19.02450562 10.69491577 C-19.11038349 16.50225045 -19.2098789 22.30923715 -19.31738281 28.11621094 C-19.35572991 30.28509693 -19.39057255 32.45404777 -19.421875 34.62304688 C-19.46740138 37.73591332 -19.52541573 40.84833106 -19.5859375 43.9609375 C-19.60326431 45.42193375 -19.60326431 45.42193375 -19.62094116 46.91244507 C-19.64081085 47.81322784 -19.66068054 48.71401062 -19.68115234 49.64208984 C-19.69447601 50.43706879 -19.70779968 51.23204773 -19.7215271 52.05111694 C-20 54 -20 54 -22 56 C-24.1640625 56.1953125 -24.1640625 56.1953125 -26.625 56.125 C-27.44226562 56.10695312 -28.25953125 56.08890625 -29.1015625 56.0703125 C-29.72804687 56.04710937 -30.35453125 56.02390625 -31 56 C-31.33 55.34 -31.66 54.68 -32 54 C-31.34 53.01 -30.68 52.02 -30 51 C-29.67 51.66 -29.34 52.32 -29 53 C-27.02 53 -25.04 53 -23 53 C-22.67 37.49 -22.34 21.98 -22 6 C-15.4 6 -8.8 6 -2 6 C-2 5.34 -2 4.68 -2 4 C-1.34 4 -0.68 4 0 4 C0 2.68 0 1.36 0 0 Z " fill="#F5DCE0" transform="translate(62,48)"/>
<path d="M0 0 C0.66 0.33 1.32 0.66 2 1 C2 3.64 2 6.28 2 9 C2.33 9 2.66 9 3 9 C3.0580966 12.9166043 3.09362893 16.83309763 3.125 20.75 C3.14175781 21.86117187 3.15851563 22.97234375 3.17578125 24.1171875 C3.18222656 25.18710938 3.18867188 26.25703125 3.1953125 27.359375 C3.20578613 28.34389648 3.21625977 29.32841797 3.22705078 30.34277344 C2.99489618 33.05973111 2.39036273 34.68112513 1 37 C-0.43655854 37.08131463 -1.8744483 37.13933559 -3.3125 37.1875 C-4.51326172 37.23970703 -4.51326172 37.23970703 -5.73828125 37.29296875 C-8 37 -8 37 -9.8125 35.65625 C-11 34 -11 34 -10.6875 31.3125 C-10.3471875 30.1678125 -10.3471875 30.1678125 -10 29 C-9.67 29 -9.34 29 -9 29 C-9 30.98 -9 32.96 -9 35 C-6.36 34.67 -3.72 34.34 -1 34 C-0.67 22.78 -0.34 11.56 0 0 Z " fill="#F2D7DC" transform="translate(164,67)"/>
<path d="M0 0 C0.33 0 0.66 0 1 0 C1.33 11.55 1.66 23.1 2 35 C4.64 35 7.28 35 10 35 C10.33 26.09 10.66 17.18 11 8 C11.99 8.33 12.98 8.66 14 9 C13.89004549 12.9172412 13.75943266 16.83352845 13.625 20.75 C13.57859375 22.41675781 13.57859375 22.41675781 13.53125 24.1171875 C13.47324219 25.72207031 13.47324219 25.72207031 13.4140625 27.359375 C13.3826416 28.34389648 13.3512207 29.32841797 13.31884766 30.34277344 C12.99897742 33.00852201 12.35631379 34.70616405 11 37 C9.54207116 37.05399736 8.08357288 37.09279177 6.625 37.125 C5.81289063 37.14820313 5.00078125 37.17140625 4.1640625 37.1953125 C2 37 2 37 0 35 C-0.17510386 32.34708243 -0.23155483 29.80013826 -0.1953125 27.1484375 C-0.1924826 26.37440582 -0.18965271 25.60037415 -0.18673706 24.80288696 C-0.17552754 22.32676843 -0.15042203 19.8510095 -0.125 17.375 C-0.11497118 15.69792188 -0.10584516 14.02083811 -0.09765625 12.34375 C-0.07558574 8.22902777 -0.04105102 4.11457489 0 0 Z " fill="#F0CBCD" transform="translate(282,67)"/>
<path d="M0 0 C2.31590289 3.47385433 2.26991835 4.96430006 2.25 9.0625 C2.25773437 10.65771484 2.25773437 10.65771484 2.265625 12.28515625 C2 15 2 15 0 17 C-2.65291757 17.17510386 -5.19986174 17.23155483 -7.8515625 17.1953125 C-8.62559418 17.1924826 -9.39962585 17.18965271 -10.19711304 17.18673706 C-12.67323157 17.17552754 -15.1489905 17.15042203 -17.625 17.125 C-19.30207812 17.11497118 -20.97916189 17.10584516 -22.65625 17.09765625 C-26.77097223 17.07558574 -30.88542511 17.04105102 -35 17 C-35 16.34 -35 15.68 -35 15 C-23.78 14.67 -12.56 14.34 -1 14 C-0.67 9.38 -0.34 4.76 0 0 Z " fill="#F6E8EC" transform="translate(109,69)"/>
<path d="M0 0 C0.66 0 1.32 0 2 0 C1.67 13.53 1.34 27.06 1 41 C0.34 41 -0.32 41 -1 41 C-1.02464705 35.32169922 -1.04283462 29.64342931 -1.05493164 23.96508789 C-1.05997256 22.03181415 -1.06680519 20.09854424 -1.07543945 18.1652832 C-1.08751565 15.39273128 -1.09323057 12.62022959 -1.09765625 9.84765625 C-1.10281754 8.97786636 -1.10797882 8.10807648 -1.11329651 7.21192932 C-1.11349185 5.14094186 -1.06208168 3.07005676 -1 1 C-0.67 0.67 -0.34 0.34 0 0 Z " fill="#F4F3F4" transform="translate(118,59)"/>
<path d="M0 0 C-0.33 0.66 -0.66 1.32 -1 2 C-2.85625 2.4021875 -2.85625 2.4021875 -4.75 2.8125 C-9.04397485 3.76842977 -11.13748105 5.61702306 -14 9 C-14.33 9.33 -14.66 9.66 -15 10 C-15.15764405 11.77869726 -15.25100677 13.56318476 -15.31640625 15.34765625 C-15.35830078 16.42724609 -15.40019531 17.50683594 -15.44335938 18.61914062 C-15.48267578 19.75544922 -15.52199219 20.89175781 -15.5625 22.0625 C-15.60568359 23.20267578 -15.64886719 24.34285156 -15.69335938 25.51757812 C-15.79982839 28.34492195 -15.90184207 31.17235738 -16 34 C-16.33 34 -16.66 34 -17 34 C-19.41148325 14.92344498 -19.41148325 14.92344498 -17 7 C-16.34 7 -15.68 7 -15 7 C-14.34 5.68 -13.68 4.36 -13 3 C-12.34 3 -11.68 3 -11 3 C-11 2.34 -11 1.68 -11 1 C-7.32589215 -0.17571451 -3.83070817 -0.07366746 0 0 Z " fill="#EABCC2" transform="translate(147,65)"/>
<path d="M0 0 C0.33 0 0.66 0 1 0 C1 1.98 1 3.96 1 6 C2.32 6.33 3.64 6.66 5 7 C4.67 7.33 4.34 7.66 4 8 C3.95907063 10.33297433 3.95758277 12.66705225 4 15 C3.01 14.67 2.02 14.34 1 14 C0.97285566 16.7084017 0.95309154 19.41652721 0.9375 22.125 C0.92912109 22.88554688 0.92074219 23.64609375 0.91210938 24.4296875 C0.89353491 28.7389644 1.13882735 32.75516474 2 37 C1.34 37 0.68 37 0 37 C-0.36294314 34.8973294 -0.71506972 32.79278943 -1.0625 30.6875 C-1.35833984 28.92986328 -1.35833984 28.92986328 -1.66015625 27.13671875 C-2 24 -2 24 -1 21 C-0.85284801 19.37432921 -0.75278133 17.74413143 -0.68359375 16.11328125 C-0.64169922 15.17548828 -0.59980469 14.23769531 -0.55664062 13.27148438 C-0.51732422 12.29501953 -0.47800781 11.31855469 -0.4375 10.3125 C-0.39431641 9.32443359 -0.35113281 8.33636719 -0.30664062 7.31835938 C-0.20058346 4.87904454 -0.09852286 2.43962887 0 0 Z " fill="#FAE7EC" transform="translate(167,78)"/>
<path d="M0 0 C0.33 0 0.66 0 1 0 C1 3.3 1 6.6 1 10 C1.66 10 2.32 10 3 10 C3 10.66 3 11.32 3 12 C4.65 12 6.3 12 8 12 C8.33 13.98 8.66 15.96 9 18 C10.98 18 12.96 18 15 18 C15 18.66 15 19.32 15 20 C15.66 20.33 16.32 20.66 17 21 C10.33749349 20.54051679 6.11317092 19.28204576 1.34375 14.25390625 C-0.43135304 11.2764805 -0.29962952 9.18863853 -0.1875 5.75 C-0.14689453 4.13351563 -0.14689453 4.13351563 -0.10546875 2.484375 C-0.07066406 1.66453125 -0.03585938 0.8446875 0 0 Z " fill="#CD5369" transform="translate(171,56)"/>
<path d="M0 0 C1.32 0 2.64 0 4 0 C3.42655063 2.86724686 3.1385485 3.8614515 1 6 C0.53993654 8.20250992 0.53993654 8.20250992 0.375 10.625 C0.30023438 11.44226563 0.22546875 12.25953125 0.1484375 13.1015625 C0.09945312 13.72804688 0.05046875 14.35453125 0 15 C-1.32 15.33 -2.64 15.66 -4 16 C-3.34 15.01 -2.68 14.02 -2 13 C-1.83300768 9.87478167 -1.83300768 9.87478167 -2 7 C-7.44535609 3.61504892 -12.67721029 3.32626495 -19 3 C-19 2.67 -19 2.34 -19 2 C-12.73 2 -6.46 2 0 2 C0 1.34 0 0.68 0 0 Z " fill="#CA596D" transform="translate(214,76)"/>
<path d="M0 0 C0.99 0.33 1.98 0.66 3 1 C2.6875 3.375 2.6875 3.375 2 6 C-1.07691766 8.05127844 -1.93644999 8.27260872 -5.44921875 8.4140625 C-6.29677734 8.45273437 -7.14433594 8.49140625 -8.01757812 8.53125 C-9.33918945 8.57765625 -9.33918945 8.57765625 -10.6875 8.625 C-11.58017578 8.66367187 -12.47285156 8.70234375 -13.39257812 8.7421875 C-15.5948462 8.83640218 -17.79710722 8.92201588 -20 9 C-20.33 8.01 -20.66 7.02 -21 6 C-14.73 6 -8.46 6 -2 6 C-2 5.34 -2 4.68 -2 4 C-1.34 4 -0.68 4 0 4 C0 2.68 0 1.36 0 0 Z " fill="#F5BFC7" transform="translate(62,48)"/>
<path d="M0 0 C0.66 0.33 1.32 0.66 2 1 C1.01 2.485 1.01 2.485 0 4 C-0.95576753 9.02173139 -1.19598477 14.02264642 -1.31640625 19.12109375 C-1.3475779 20.23823509 -1.3475779 20.23823509 -1.37937927 21.37794495 C-1.4441821 23.73104625 -1.50343365 26.08424843 -1.5625 28.4375 C-1.6057513 30.04362976 -1.64936757 31.64974973 -1.69335938 33.25585938 C-1.79979122 37.17047249 -1.90124851 41.08518591 -2 45 C-2.33 45 -2.66 45 -3 45 C-3.07418336 39.23424086 -3.12861797 33.46875983 -3.16479492 27.70263672 C-3.17987695 25.74132447 -3.20034547 23.78004592 -3.22631836 21.81884766 C-3.26272731 18.99893882 -3.27973216 16.17947608 -3.29296875 13.359375 C-3.30845261 12.48319519 -3.32393646 11.60701538 -3.33988953 10.70428467 C-3.34158031 4.58154885 -3.34158031 4.58154885 -1.48168945 1.41503906 C-0.99273193 0.94807617 -0.50377441 0.48111328 0 0 Z " fill="#F8E5E7" transform="translate(284,56)"/>
<path d="M0 0 C0.33 0 0.66 0 1 0 C1.02886338 4.47915328 1.04675187 8.95828291 1.0625 13.4375 C1.07087891 14.71689453 1.07925781 15.99628906 1.08789062 17.31445312 C1.09111328 18.52939453 1.09433594 19.74433594 1.09765625 20.99609375 C1.10289307 22.12200928 1.10812988 23.2479248 1.11352539 24.40795898 C1 27 1 27 0 28 C-7.36633663 28.47524752 -7.36633663 28.47524752 -10 26.5 C-10.33 26.005 -10.66 25.51 -11 25 C-10.01 24.67 -9.02 24.34 -8 24 C-8 24.66 -8 25.32 -8 26 C-4.535 25.505 -4.535 25.505 -1 25 C-0.67 16.75 -0.34 8.5 0 0 Z " fill="#FCE0E8" transform="translate(328,76)"/>
<path d="M0 0 C2.3125 0.8125 2.3125 0.8125 3.3125 2.8125 C-0.1525 4.2975 -0.1525 4.2975 -3.6875 5.8125 C-3.3575 8.1225 -3.0275 10.4325 -2.6875 12.8125 C-5.4847908 10.74493723 -5.71442273 9.66809629 -6.375 6.125 C-6.478125 5.031875 -6.58125 3.93875 -6.6875 2.8125 C-4.2961605 0.59829676 -3.32534138 -0.23200056 0 0 Z " fill="#D0566C" transform="translate(176.6875,83.1875)"/>
<path d="M0 0 C0.556875 0.33 1.11375 0.66 1.6875 1 C4.30284522 2.1309601 6.1806646 2.15662974 9 2 C9 1.34 9 0.68 9 0 C10.32 0 11.64 0 13 0 C13 0.66 13 1.32 13 2 C12.34 2 11.68 2 11 2 C11 2.66 11 3.32 11 4 C8.36 4 5.72 4 3 4 C3 5.32 3 6.64 3 8 C2.34 8 1.68 8 1 8 C-1.125 3.375 -1.125 3.375 0 0 Z " fill="#DA435B" transform="translate(179,50)"/>
<path d="M0 0 C-1.32 0.33 -2.64 0.66 -4 1 C-4 1.66 -4 2.32 -4 3 C-4.639375 3.12375 -5.27875 3.2475 -5.9375 3.375 C-6.618125 3.58125 -7.29875 3.7875 -8 4 C-8.33 4.66 -8.66 5.32 -9 6 C-9.99 6.495 -9.99 6.495 -11 7 C-11.65213292 9.02463255 -11.65213292 9.02463255 -12 11 C-12.66 11 -13.32 11 -14 11 C-14 10.34 -14 9.68 -14 9 C-15.98 9.99 -15.98 9.99 -18 11 C-16.14751151 5.99828109 -12.06647025 3.05843598 -7.4375 0.6875 C-4.84471518 -0.04379828 -2.68065884 -0.15318051 0 0 Z " fill="#CD546A" transform="translate(190,45)"/>
<path d="M0 0 C0.5 2.625 0.5 2.625 0 6 C-3.41319323 9.53509299 -7.14310004 12.07018807 -12 13 C-12.33 12.34 -12.66 11.68 -13 11 C-12.34 11 -11.68 11 -11 11 C-10.67 10.01 -10.34 9.02 -10 8 C-8.35 8 -6.7 8 -5 8 C-5 7.34 -5 6.68 -5 6 C-4.34 6 -3.68 6 -3 6 C-3 4.35 -3 2.7 -3 1 C-1 0 -1 0 0 0 Z " fill="#FCDAD9" transform="translate(107,92)"/>
<path d="M0 0 C-0.33 0.99 -0.66 1.98 -1 3 C-1.66 2.67 -2.32 2.34 -3 2 C-8.71972855 1.4500261 -11.51288972 2.45205234 -16 6 C-16.66 6.66 -17.32 7.32 -18 8 C-18.33 7.34 -18.66 6.68 -19 6 C-17.625 4 -17.625 4 -16 2 C-15.34 2 -14.68 2 -14 2 C-14 1.34 -14 0.68 -14 0 C-9.32517708 -1.49594333 -4.64398011 -1.54799337 0 0 Z " fill="#F5D2D4" transform="translate(314,66)"/>
<path d="M0 0 C0.99 0 1.98 0 3 0 C3 0.66 3 1.32 3 2 C3.99 2 4.98 2 6 2 C6 3.32 6 4.64 6 6 C2.86501708 7.85776765 0.62528568 8.20140476 -3 8 C-2.01 6.68 -1.02 5.36 0 4 C-0.66 4 -1.32 4 -2 4 C-2 3.34 -2 2.68 -2 2 C-1.34 2 -0.68 2 0 2 C0 1.34 0 0.68 0 0 Z " fill="#D9465E" transform="translate(258,58)"/>
<path d="M0 0 C4.86425339 4.13461538 4.86425339 4.13461538 5.5 8.1875 C5.335 9.115625 5.17 10.04375 5 11 C2 13 2 13 -0.1875 12.625 C-0.785625 12.41875 -1.38375 12.2125 -2 12 C-1.01 12 -0.02 12 1 12 C1.19814261 5.91591528 1.19814261 5.91591528 0 0 Z " fill="#D05B72" transform="translate(217,50)"/>
<path d="M0 0 C1.41655793 -0.0272415 2.83327045 -0.04650467 4.25 -0.0625 C5.43335937 -0.07990234 5.43335937 -0.07990234 6.640625 -0.09765625 C8.90691002 -0.00385306 10.8288895 0.36758937 13 1 C13 1.66 13 2.32 13 3 C13.66 3 14.32 3 15 3 C15 4.65 15 6.3 15 8 C14.401875 7.175 13.80375 6.35 13.1875 5.5 C11.16385044 3.41164071 10.16027181 3.01913357 7.21875 2.66796875 C4.46436561 2.68571607 1.74557031 2.78362406 -1 3 C-0.67 2.01 -0.34 1.02 0 0 Z " fill="#EEC4CA" transform="translate(83,65)"/>
<path d="M0 0 C1.57043101 0.01330874 3.14079971 0.03717648 4.7109375 0.0703125 C5.51273438 0.07933594 6.31453125 0.08835938 7.140625 0.09765625 C9.12252273 0.12125027 11.10426731 0.15712185 13.0859375 0.1953125 C13.4159375 0.8553125 13.7459375 1.5153125 14.0859375 2.1953125 C11.26148158 3.13679781 9.94422132 3.26842945 7.07421875 3.07421875 C6.31689453 3.02587891 5.55957031 2.97753906 4.77929688 2.92773438 C3.99361328 2.87166016 3.20792969 2.81558594 2.3984375 2.7578125 C1.60115234 2.70560547 0.80386719 2.65339844 -0.01757812 2.59960938 C-1.98342772 2.47012228 -3.94879915 2.33341209 -5.9140625 2.1953125 C-3.9140625 0.1953125 -3.9140625 0.1953125 0 0 Z " fill="#F6CFD7" transform="translate(16.9140625,53.8046875)"/>
<path d="M0 0 C-0.61277612 2.96175123 -1.25372522 4.38058783 -3 7 C-4.65 6.67 -6.3 6.34 -8 6 C-8 4.68 -8 3.36 -8 2 C-4.91190305 0.23537317 -3.76687864 0 0 0 Z " fill="#D54659" transform="translate(180,86)"/>
<path d="M0 0 C-0.33 0.66 -0.66 1.32 -1 2 C-2.216875 2.268125 -3.43375 2.53625 -4.6875 2.8125 C-9.25338979 3.8243999 -11.63993999 5.80794299 -15 9 C-14.67 7.35 -14.34 5.7 -14 4 C-13.01 3.67 -12.02 3.34 -11 3 C-11 2.34 -11 1.68 -11 1 C-7.32589215 -0.17571451 -3.83070817 -0.07366746 0 0 Z " fill="#F3D5D9" transform="translate(147,65)"/>
<path d="M0 0 C0.99 0.33 1.98 0.66 3 1 C1.92807816 2.3218362 0.84197305 3.63217927 -0.25 4.9375 C-0.85328125 5.66839844 -1.4565625 6.39929688 -2.078125 7.15234375 C-4.10741134 9.10326334 -5.254407 9.61731779 -8 10 C-8 9.34 -8 8.68 -8 8 C-7.34 8 -6.68 8 -6 8 C-6 7.34 -6 6.68 -6 6 C-5.34 6 -4.68 6 -4 6 C-3.67 4.68 -3.34 3.36 -3 2 C-2.01 2 -1.02 2 0 2 C0 1.34 0 0.68 0 0 Z " fill="#FBE5E9" transform="translate(272,120)"/>
<path d="M0 0 C1.44207941 2.88415883 1.09394887 5.41721528 1.0625 8.625 C1.05347656 9.81351563 1.04445312 11.00203125 1.03515625 12.2265625 C1.02355469 13.14179687 1.01195312 14.05703125 1 15 C-0.98 15.99 -0.98 15.99 -3 17 C-3 14.03 -3 11.06 -3 8 C-2.67 8 -2.34 8 -2 8 C-1.855625 6.865625 -1.71125 5.73125 -1.5625 4.5625 C-1 1 -1 1 0 0 Z " fill="#F0D8E0" transform="translate(227,73)"/>
<path d="M0 0 C13.365 0.495 13.365 0.495 27 1 C27 1.33 27 1.66 27 2 C17.76 2.33 8.52 2.66 -1 3 C-0.67 2.01 -0.34 1.02 0 0 Z " fill="#FDDCE0" transform="translate(192,132)"/>
<path d="M0 0 C5.28 0.33 10.56 0.66 16 1 C16 1.33 16 1.66 16 2 C11.38 2 6.76 2 2 2 C2 2.66 2 3.32 2 4 C-0.31 4 -2.62 4 -5 4 C-4.67 3.34 -4.34 2.68 -4 2 C-2.68 2 -1.36 2 0 2 C0 1.34 0 0.68 0 0 Z " fill="#C35D69" transform="translate(188,68)"/>
<path d="M0 0 C1.98 0 3.96 0 6 0 C6.66 1.32 7.32 2.64 8 4 C7.01 4.66 6.02 5.32 5 6 C2.3125 5.125 2.3125 5.125 0 4 C0 2.68 0 1.36 0 0 Z " fill="#D7455B" transform="translate(262,66)"/>
<path d="M0 0 C0.33 1.32 0.66 2.64 1 4 C-4.39460953 6.27141454 -9.26157749 6.20413361 -15 6 C-15 5.67 -15 5.34 -15 5 C-14.33613281 4.89042969 -13.67226562 4.78085938 -12.98828125 4.66796875 C-8.09120522 3.78863977 -4.09838572 3.00548286 0 0 Z " fill="#C35365" transform="translate(263,90)"/>
<path d="M0 0 C2.38564077 0.57584432 4.66682784 1.22227595 7 2 C7 2.66 7 3.32 7 4 C9.97 4.495 9.97 4.495 13 5 C12.34 5.66 11.68 6.32 11 7 C9.53708696 6.4070085 8.07978487 5.80016177 6.625 5.1875 C5.81289062 4.85105469 5.00078125 4.51460938 4.1640625 4.16796875 C2 3 2 3 0 0 Z " fill="#F8E6E9" transform="translate(69,98)"/>
<path d="M0 0 C1.16959987 0.97566112 2.33561177 1.955625 3.5 2.9375 C4.1496875 3.48277344 4.799375 4.02804688 5.46875 4.58984375 C6.22671875 5.28787109 6.22671875 5.28787109 7 6 C7 6.33 7 6.66 7 7 C4.03 7 1.06 7 -2 7 C-2 6.34 -2 5.68 -2 5 C-1.34 4.67 -0.68 4.34 0 4 C0 2.68 0 1.36 0 0 Z " fill="#CD536A" transform="translate(238,87)"/>
<path d="M0 0 C1.32 0 2.64 0 4 0 C4 0.66 4 1.32 4 2 C3.34 2 2.68 2 2 2 C2.350625 2.94875 2.70125 3.8975 3.0625 4.875 C4 8 4 8 3 10 C-1.06153846 4.58461538 -1.06153846 4.58461538 -0.75 1.625 C-0.5025 1.08875 -0.255 0.5525 0 0 Z " fill="#CE5367" transform="translate(210,52)"/>
<path d="M0 0 C0.99 0 1.98 0 3 0 C2.67 1.11375 2.34 2.2275 2 3.375 C0.911357 6.69459717 0.911357 6.69459717 1 9 C0.01 9 -0.98 9 -2 9 C-2.20140476 5.37471432 -1.85776765 3.13498292 0 0 Z " fill="#F5DBDE" transform="translate(76,68)"/>
<path d="M0 0 C0.66 0 1.32 0 2 0 C1.67 4.62 1.34 9.24 1 14 C0.67 14 0.34 14 0 14 C-0.19393875 11.85473901 -0.37998676 9.70876323 -0.5625 7.5625 C-0.71912109 5.77005859 -0.71912109 5.77005859 -0.87890625 3.94140625 C-0.91886719 2.97074219 -0.95882812 2.00007813 -1 1 C-0.67 0.67 -0.34 0.34 0 0 Z " fill="#F0E3E5" transform="translate(118,59)"/>
<path d="M0 0 C0.33 0 0.66 0 1 0 C1 3.63 1 7.26 1 11 C0.01 11.495 0.01 11.495 -1 12 C-2.42857143 3.42857143 -2.42857143 3.42857143 0 0 Z " fill="#F8D3D7" transform="translate(63,76)"/>
<path d="M0 0 C1.65 0 3.3 0 5 0 C4.67 0.99 4.34 1.98 4 3 C0.9375 4.1875 0.9375 4.1875 -2 5 C-2.33 4.34 -2.66 3.68 -3 3 C-2.34 3 -1.68 3 -1 3 C-0.67 2.01 -0.34 1.02 0 0 Z " fill="#F1D6D5" transform="translate(97,100)"/>
<path d="M0 0 C0.721875 0.45375 1.44375 0.9075 2.1875 1.375 C4.74894081 2.85494358 7.23277989 3.97217539 10 5 C10 5.33 10 5.66 10 6 C3.375 5.25 3.375 5.25 0 3 C0 2.01 0 1.02 0 0 Z " fill="#FDCCDA" transform="translate(177,126)"/>
<path d="M0 0 C1.32 0.99 2.64 1.98 4 3 C3.6875 5.375 3.6875 5.375 3 8 C2.01 8.66 1.02 9.32 0 10 C0 8.68 0 7.36 0 6 C0.66 6 1.32 6 2 6 C1.34 4.02 0.68 2.04 0 0 Z " fill="#CA5F74" transform="translate(266,90)"/>
<path d="M0 0 C2.97 0 5.94 0 9 0 C6.01353231 1.99097846 3.40312738 2.94124926 0 4 C0 2.68 0 1.36 0 0 Z " fill="#DF4B67" transform="translate(190,94)"/>
<path d="M0 0 C0.66 0 1.32 0 2 0 C2 0.66 2 1.32 2 2 C2.66 2 3.32 2 4 2 C4 2.66 4 3.32 4 4 C1.36 4 -1.28 4 -4 4 C-4 3.34 -4 2.68 -4 2 C-2.68 2 -1.36 2 0 2 C0 1.34 0 0.68 0 0 Z " fill="#DD4359" transform="translate(208,74)"/>
<path d="M0 0 C0.99 0.33 1.98 0.66 3 1 C2.67 2.65 2.34 4.3 2 6 C0.68 6.33 -0.64 6.66 -2 7 C-2 6.01 -2 5.02 -2 4 C-1.34 4 -0.68 4 0 4 C0 2.68 0 1.36 0 0 Z " fill="#FAD8DB" transform="translate(62,48)"/>
<path d="M0 0 C0.99 0.33 1.98 0.66 3 1 C1.38405168 3.04119788 -0.2856382 5.04072937 -2 7 C-2.66 7 -3.32 7 -4 7 C-3.02391783 4.07175348 -1.89213369 2.38573379 0 0 Z " fill="#CC536B" transform="translate(220,92)"/>
<path d="M0 0 C2.64 0 5.28 0 8 0 C5.37352812 1.75098126 2.71224618 3.38731308 0 5 C0 3.35 0 1.7 0 0 Z " fill="#C9566A" transform="translate(182,54)"/>
<path d="M0 0 C2.31 0 4.62 0 7 0 C2.25 4 2.25 4 0 4 C0 2.68 0 1.36 0 0 Z " fill="#FCEBE7" transform="translate(256,90)"/>
<path d="M0 0 C0.99 0 1.98 0 3 0 C2.34 2.31 1.68 4.62 1 7 C0.34 6.34 -0.32 5.68 -1 5 C-0.625 2.375 -0.625 2.375 0 0 Z " fill="#D4536D" transform="translate(237,70)"/>
<path d="M0 0 C0.33 0 0.66 0 1 0 C1.268125 0.94875 1.53625 1.8975 1.8125 2.875 C2.74986588 6.25267273 2.74986588 6.25267273 6 8 C4.68 8.33 3.36 8.66 2 9 C0.4375 7.3125 0.4375 7.3125 -1 5 C-0.6875 2.25 -0.6875 2.25 0 0 Z " fill="#D35D72" transform="translate(181,60)"/>
<path d="M0 0 C0.33 0.99 0.66 1.98 1 3 C-0.65 3 -2.3 3 -4 3 C-4 3.66 -4 4.32 -4 5 C-4.99 4.67 -5.98 4.34 -7 4 C-2.25 0 -2.25 0 0 0 Z " fill="#C85167" transform="translate(240,59)"/>
<path d="M0 0 C2.97 0.495 2.97 0.495 6 1 C5.01 1.495 5.01 1.495 4 2 C4 2.66 4 3.32 4 4 C2.68 4 1.36 4 0 4 C0 2.68 0 1.36 0 0 Z " fill="#CB5466" transform="translate(254,56)"/>
</svg>
